<svg width="151" height="151" viewBox="0 0 151 151" fill="none" xmlns="http://www.w3.org/2000/svg">
<g clip-path="url(#clip0_92_85)">
<path d="M150.84 75.42C150.84 33.7667 117.073 0 75.42 0C33.7667 0 0 33.7667 0 75.42C0 117.073 33.7667 150.84 75.42 150.84C117.073 150.84 150.84 117.073 150.84 75.42Z" fill="#F24E35"/>
<path d="M35.2 81.23V109.95C35.2 113.1 37.75 115.65 40.9 115.65H69.62C50.61 115.65 35.2099 100.24 35.2099 81.24L35.2 81.23Z" fill="#F2DFDA"/>
<path d="M35.1999 40.9V69.62C35.1999 50.61 50.6099 35.21 69.6099 35.21H40.8899C37.7399 35.21 35.1899 37.76 35.1899 40.91L35.1999 40.9Z" fill="#F2DFDA"/>
<path d="M109.94 35.2H81.22C100.23 35.2 115.63 50.61 115.63 69.61V40.89C115.63 37.74 113.08 35.19 109.93 35.19L109.94 35.2Z" fill="#F2DFDA"/>
<path d="M81.22 115.64H109.94C113.09 115.64 115.64 113.09 115.64 109.94V81.22C115.64 100.23 100.23 115.63 81.23 115.63L81.22 115.64Z" fill="#F2DFDA"/>
</g>
<defs>
<clipPath id="clip0_92_85">
<rect width="150.84" height="150.84" fill="white"/>
</clipPath>
</defs>
</svg>
