<svg width="344" height="460" viewBox="0 0 344 460" fill="none" xmlns="http://www.w3.org/2000/svg">
<g clip-path="url(#clip0_92_197)">
<path d="M0 61.68V100.16C0 104.38 3.42 107.8 7.64 107.8H46.12C20.65 107.81 0 87.16 0 61.68Z" fill="#F24E35"/>
<path d="M0 7.64V46.12C0 20.65 20.65 0 46.12 0H7.64C3.42 0 0 3.42 0 7.64Z" fill="#F24E35"/>
<path d="M100.18 0H61.7C87.17 0 107.82 20.65 107.82 46.12V7.64C107.82 3.42 104.4 0 100.18 0Z" fill="#F24E35"/>
<path d="M61.68 107.81H100.16C104.38 107.81 107.8 104.39 107.8 100.17V61.69C107.8 87.16 87.15 107.81 61.68 107.81Z" fill="#F24E35"/>
<path d="M130.06 21.62H136.69V80.59H177.28L177.37 86.68H130.15L130.06 21.62Z" fill="#040303"/>
<path d="M207.2 38.66C225.12 38.66 233.63 50.4 233.63 63.39C233.63 76.38 225.12 88.12 207.2 88.12C189.28 88.12 180.77 76.38 180.77 63.39C180.77 50.4 189.28 38.66 207.2 38.66ZM207.2 82.56C219.74 82.56 227 74.5 227 63.39C227 52.28 219.74 44.22 207.2 44.22C194.66 44.22 187.4 52.28 187.4 63.39C187.4 74.5 194.66 82.56 207.2 82.56Z" fill="#040303"/>
<path d="M242.23 22.17H248.86V62.76L277.26 40.09H287.12L264.27 57.74L288.91 86.68H280.13L259.34 62.04L248.86 70.01L248.95 86.67H242.32L242.23 22.16V22.17Z" fill="#040303"/>
<path d="M293.29 54.43C294.28 44.66 299.56 38.66 315.51 38.66C331.46 38.66 336.83 43.5 336.83 52.46V76.83C336.83 80.68 337.9 82.03 340.5 82.03C341.66 82.03 342.83 81.94 343.99 81.85V86.33C342.65 86.6 340.59 87.05 338.44 87.05C331.72 87.05 331.27 82.48 331.27 78.81H331.09C329.03 81.86 324.55 88.13 309.32 88.13C301.35 88.13 291.22 84.64 291.22 74.15C291.22 61.61 304.21 59.99 314.42 59.55C329.02 58.83 330.73 57.94 330.73 53.37C330.73 46.56 326.34 44.23 315.32 44.23C304.3 44.23 299.82 46.92 299.37 54.44H293.28L293.29 54.43ZM330.74 61.59C327.96 63.47 323.12 63.92 310.04 65.08C302.25 65.8 297.86 68.04 297.86 73.68C297.86 80.94 304.13 83.09 311.3 83.09C320.26 83.09 330.74 78.25 330.74 68.67V61.59Z" fill="#040303"/>
</g>
<g clip-path="url(#clip1_92_197)">
<path d="M0 237.49V275.97C0 280.19 3.42 283.61 7.64 283.61H46.12C20.65 283.62 0 262.97 0 237.49Z" fill="#F24E35"/>
<path d="M0 183.45V221.93C0 196.46 20.65 175.81 46.12 175.81H7.64C3.42 175.81 0 179.23 0 183.45Z" fill="#F24E35"/>
<path d="M100.18 175.81H61.7C87.17 175.81 107.82 196.46 107.82 221.93V183.45C107.82 179.23 104.4 175.81 100.18 175.81Z" fill="#F24E35"/>
<path d="M61.68 283.62H100.16C104.38 283.62 107.8 280.2 107.8 275.98V237.5C107.8 262.97 87.15 283.62 61.68 283.62Z" fill="#F24E35"/>
<path d="M130.06 197.43H136.69V256.4H177.28L177.37 262.49H130.15L130.06 197.43Z" fill="#F2DFDA"/>
<path d="M207.2 214.47C225.12 214.47 233.63 226.21 233.63 239.2C233.63 252.19 225.12 263.93 207.2 263.93C189.28 263.93 180.77 252.19 180.77 239.2C180.77 226.21 189.28 214.47 207.2 214.47ZM207.2 258.37C219.74 258.37 227 250.31 227 239.2C227 228.09 219.74 220.03 207.2 220.03C194.66 220.03 187.4 228.09 187.4 239.2C187.4 250.31 194.66 258.37 207.2 258.37Z" fill="#F2DFDA"/>
<path d="M242.23 197.98H248.86V238.57L277.26 215.9H287.12L264.27 233.55L288.91 262.49H280.13L259.34 237.85L248.86 245.82L248.95 262.48H242.32L242.23 197.97V197.98Z" fill="#F2DFDA"/>
<path d="M293.29 230.24C294.28 220.47 299.56 214.47 315.51 214.47C331.46 214.47 336.83 219.31 336.83 228.27V252.64C336.83 256.49 337.9 257.84 340.5 257.84C341.66 257.84 342.83 257.75 343.99 257.66V262.14C342.65 262.41 340.59 262.86 338.44 262.86C331.72 262.86 331.27 258.29 331.27 254.62H331.09C329.03 257.67 324.55 263.94 309.32 263.94C301.35 263.94 291.22 260.45 291.22 249.96C291.22 237.42 304.21 235.8 314.42 235.36C329.02 234.64 330.73 233.75 330.73 229.18C330.73 222.37 326.34 220.04 315.32 220.04C304.3 220.04 299.82 222.73 299.37 230.25H293.28L293.29 230.24ZM330.74 237.4C327.96 239.28 323.12 239.73 310.04 240.89C302.25 241.61 297.86 243.85 297.86 249.49C297.86 256.75 304.13 258.9 311.3 258.9C320.26 258.9 330.74 254.06 330.74 244.48V237.4Z" fill="#F2DFDA"/>
</g>
<g clip-path="url(#clip2_92_197)">
<path d="M0 413.3V451.78C0 456 3.42 459.42 7.64 459.42H46.12C20.65 459.43 0 438.78 0 413.3Z" fill="#F2DFDA"/>
<path d="M0 359.26V397.74C0 372.27 20.65 351.62 46.12 351.62H7.64C3.42 351.62 0 355.04 0 359.26Z" fill="#F2DFDA"/>
<path d="M100.18 351.62H61.7C87.17 351.62 107.82 372.27 107.82 397.74V359.26C107.82 355.04 104.4 351.62 100.18 351.62Z" fill="#F2DFDA"/>
<path d="M61.68 459.43H100.16C104.38 459.43 107.8 456.01 107.8 451.79V413.31C107.8 438.78 87.15 459.43 61.68 459.43Z" fill="#F2DFDA"/>
<path d="M130.06 373.24H136.69V432.21H177.28L177.37 438.3H130.15L130.06 373.24Z" fill="#F2DFDA"/>
<path d="M207.2 390.28C225.12 390.28 233.63 402.02 233.63 415.01C233.63 428 225.12 439.74 207.2 439.74C189.28 439.74 180.77 428 180.77 415.01C180.77 402.02 189.28 390.28 207.2 390.28ZM207.2 434.18C219.74 434.18 227 426.12 227 415.01C227 403.9 219.74 395.84 207.2 395.84C194.66 395.84 187.4 403.9 187.4 415.01C187.4 426.12 194.66 434.18 207.2 434.18Z" fill="#F2DFDA"/>
<path d="M242.23 373.79H248.86V414.38L277.26 391.71H287.12L264.27 409.36L288.91 438.3H280.13L259.34 413.66L248.86 421.63L248.95 438.29H242.32L242.23 373.78V373.79Z" fill="#F2DFDA"/>
<path d="M293.29 406.05C294.28 396.28 299.56 390.28 315.51 390.28C331.46 390.28 336.83 395.12 336.83 404.08V428.45C336.83 432.3 337.9 433.65 340.5 433.65C341.66 433.65 342.83 433.56 343.99 433.47V437.95C342.65 438.22 340.59 438.67 338.44 438.67C331.72 438.67 331.27 434.1 331.27 430.43H331.09C329.03 433.48 324.55 439.75 309.32 439.75C301.35 439.75 291.22 436.26 291.22 425.77C291.22 413.23 304.21 411.61 314.42 411.17C329.02 410.45 330.73 409.56 330.73 404.99C330.73 398.18 326.34 395.85 315.32 395.85C304.3 395.85 299.82 398.54 299.37 406.06H293.28L293.29 406.05ZM330.74 413.21C327.96 415.09 323.12 415.54 310.04 416.7C302.25 417.42 297.86 419.66 297.86 425.3C297.86 432.56 304.13 434.71 311.3 434.71C320.26 434.71 330.74 429.87 330.74 420.29V413.21Z" fill="#F2DFDA"/>
</g>
<defs>
<clipPath id="clip0_92_197">
<rect width="344" height="107.81" fill="white"/>
</clipPath>
<clipPath id="clip1_92_197">
<rect width="344" height="107.81" fill="white" transform="translate(0 175.81)"/>
</clipPath>
<clipPath id="clip2_92_197">
<rect width="344" height="107.81" fill="white" transform="translate(0 351.62)"/>
</clipPath>
</defs>
</svg>
