<svg width="286" height="470" viewBox="0 0 286 470" fill="none" xmlns="http://www.w3.org/2000/svg">
<g clip-path="url(#clip0_92_196)">
<path d="M0 55.95V90.86C0 94.69 3.1 97.79 6.93 97.79H41.84C18.73 97.79 0 79.06 0 55.95Z" fill="#F24E35"/>
<path d="M0 6.93V41.84C0 18.73 18.73 0 41.84 0H6.93C3.1 0 0 3.1 0 6.93Z" fill="#F24E35"/>
<path d="M90.87 0H55.96C79.07 0 97.8 18.73 97.8 41.84V6.93C97.8 3.1 94.7 0 90.87 0Z" fill="#F24E35"/>
<path d="M55.95 97.79H90.86C94.69 97.79 97.79 94.69 97.79 90.86V55.95C97.79 79.06 79.06 97.79 55.95 97.79Z" fill="#F24E35"/>
<path d="M117.28 9.08001H122.49V55.39H154.37L154.44 60.17H117.36L117.29 9.07001L117.28 9.08001Z" fill="#040303"/>
<path d="M177.86 22.46C191.93 22.46 198.62 31.68 198.62 41.88C198.62 52.08 191.94 61.3 177.86 61.3C163.78 61.3 157.1 52.08 157.1 41.88C157.1 31.68 163.78 22.46 177.86 22.46ZM177.86 56.93C187.71 56.93 193.41 50.6 193.41 41.87C193.41 33.14 187.71 26.81 177.86 26.81C168.01 26.81 162.31 33.14 162.31 41.87C162.31 50.6 168.01 56.93 177.86 56.93Z" fill="#040303"/>
<path d="M205.37 9.51001H210.58V41.39L232.89 23.59H240.63L222.69 37.45L242.04 60.18H235.14L218.82 40.83L210.59 47.09L210.66 60.18H205.45L205.38 9.52001L205.37 9.51001Z" fill="#040303"/>
<path d="M245.48 34.84C246.25 27.17 250.41 22.46 262.93 22.46C275.45 22.46 279.68 26.26 279.68 33.3V52.44C279.68 55.47 280.52 56.52 282.56 56.52C283.47 56.52 284.39 56.45 285.3 56.38V59.9C284.24 60.11 282.63 60.46 280.94 60.46C275.66 60.46 275.31 56.87 275.31 53.99H275.17C273.55 56.38 270.03 61.31 258.07 61.31C251.81 61.31 243.86 58.57 243.86 50.33C243.86 40.48 254.06 39.21 262.08 38.86C273.55 38.3 274.89 37.59 274.89 34C274.89 28.65 271.44 26.82 262.79 26.82C254.14 26.82 250.62 28.93 250.27 34.84H245.49H245.48ZM274.89 40.47C272.71 41.95 268.91 42.3 258.64 43.21C252.52 43.77 249.07 45.53 249.07 49.97C249.07 55.67 254 57.36 259.62 57.36C266.66 57.36 274.89 53.56 274.89 46.03V40.47Z" fill="#040303"/>
<path d="M143.72 76.08C143.72 72.95 142.19 71.39 138.67 71.39C134.93 71.39 132.91 73.54 132.91 76.83L132.94 86.83H130.53L130.5 75.37C130.5 73.22 128.97 71.4 125.68 71.4C122.23 71.4 119.69 73.39 119.69 77.29L119.72 86.83H117.31L117.28 69.9H119.69V73.03H119.76C120.77 71.24 122.59 69.38 126.47 69.38C130.35 69.38 132.01 71.4 132.53 73.09C133.31 71.4 135.82 69.38 139.17 69.38C143.92 69.38 146.14 71.76 146.14 75.27L146.17 86.83H143.76L143.73 76.08H143.72Z" fill="#040303"/>
<path d="M159.32 69.89H161.73L161.76 86.82H159.35L159.32 69.89Z" fill="#040303"/>
<path d="M195.34 75.92C195.34 72.53 193.26 71.39 190.23 71.39C185.51 71.39 183.36 73.77 183.36 77.64L183.39 86.82H180.98L180.95 69.89H183.36V73.21H183.43C184.11 71.39 186.69 69.37 190.43 69.37C196.03 69.37 197.76 72.3 197.76 76.34L197.79 86.82H195.38L195.35 75.91L195.34 75.92Z" fill="#040303"/>
<path d="M215.55 69.89H217.96L217.99 86.82H215.58L215.55 69.89Z" fill="#040303"/>
<path d="M250.72 75.92C250.72 72.53 248.64 71.39 245.61 71.39C240.89 71.39 238.74 73.77 238.74 77.64L238.77 86.82H236.36L236.33 69.89H238.74V73.21H238.81C239.49 71.39 242.07 69.37 245.81 69.37C251.41 69.37 253.14 72.3 253.14 76.34L253.17 86.82H250.76L250.73 75.91L250.72 75.92Z" fill="#040303"/>
<path d="M282.9 69.89H285.31V86.17C285.31 92.42 280.23 93.98 275.8 93.98C268.08 93.98 267.3 90.3 267.14 88.48H269.35C269.71 90.3 270.2 92.16 275.9 92.16C280.36 92.16 282.9 90.08 282.9 86.01V82.98H282.83C281.89 84.71 279.74 86.82 275.37 86.82C271 86.82 266.35 84.61 266.35 78C266.35 73.51 269.22 69.37 275.6 69.37C278.89 69.37 281.69 70.61 282.83 73.18H282.9V69.89ZM275.73 71.39C271.46 71.39 268.76 73.8 268.76 78C268.76 82.95 271.89 84.81 275.92 84.81C279.95 84.81 282.95 82.3 282.95 78C282.95 74.45 280.51 71.39 275.72 71.39H275.73Z" fill="#040303"/>
</g>
<g clip-path="url(#clip1_92_196)">
<path d="M0 241.74V276.65C0 280.48 3.1 283.58 6.93 283.58H41.84C18.73 283.58 0 264.85 0 241.74Z" fill="#F24E35"/>
<path d="M0 192.72V227.63C0 204.52 18.73 185.79 41.84 185.79H6.93C3.1 185.79 0 188.89 0 192.72Z" fill="#F24E35"/>
<path d="M90.87 185.79H55.96C79.07 185.79 97.8 204.52 97.8 227.63V192.72C97.8 188.89 94.7 185.79 90.87 185.79Z" fill="#F24E35"/>
<path d="M55.95 283.58H90.86C94.69 283.58 97.79 280.48 97.79 276.65V241.74C97.79 264.85 79.06 283.58 55.95 283.58Z" fill="#F24E35"/>
<path d="M117.28 194.87H122.49V241.18H154.37L154.44 245.96H117.36L117.29 194.86L117.28 194.87Z" fill="#F2DFDA"/>
<path d="M177.86 208.25C191.93 208.25 198.62 217.47 198.62 227.67C198.62 237.87 191.94 247.09 177.86 247.09C163.78 247.09 157.1 237.87 157.1 227.67C157.1 217.47 163.78 208.25 177.86 208.25ZM177.86 242.72C187.71 242.72 193.41 236.39 193.41 227.66C193.41 218.93 187.71 212.6 177.86 212.6C168.01 212.6 162.31 218.93 162.31 227.66C162.31 236.39 168.01 242.72 177.86 242.72Z" fill="#F2DFDA"/>
<path d="M205.37 195.3H210.58V227.18L232.89 209.38H240.63L222.69 223.24L242.04 245.97H235.14L218.82 226.62L210.59 232.88L210.66 245.97H205.45L205.38 195.31L205.37 195.3Z" fill="#F2DFDA"/>
<path d="M245.48 220.63C246.25 212.96 250.41 208.25 262.93 208.25C275.45 208.25 279.68 212.05 279.68 219.09V238.23C279.68 241.26 280.52 242.31 282.56 242.31C283.47 242.31 284.39 242.24 285.3 242.17V245.69C284.24 245.9 282.63 246.25 280.94 246.25C275.66 246.25 275.31 242.66 275.31 239.78H275.17C273.55 242.17 270.03 247.1 258.07 247.1C251.81 247.1 243.86 244.36 243.86 236.12C243.86 226.27 254.06 225 262.08 224.65C273.55 224.09 274.89 223.38 274.89 219.79C274.89 214.44 271.44 212.61 262.79 212.61C254.14 212.61 250.62 214.72 250.27 220.63H245.49H245.48ZM274.89 226.26C272.71 227.74 268.91 228.09 258.64 229C252.52 229.56 249.07 231.32 249.07 235.76C249.07 241.46 254 243.15 259.62 243.15C266.66 243.15 274.89 239.35 274.89 231.82V226.26Z" fill="#F2DFDA"/>
<path d="M143.72 261.87C143.72 258.74 142.19 257.18 138.67 257.18C134.93 257.18 132.91 259.33 132.91 262.62L132.94 272.62H130.53L130.5 261.16C130.5 259.01 128.97 257.19 125.68 257.19C122.23 257.19 119.69 259.18 119.69 263.08L119.72 272.62H117.31L117.28 255.69H119.69V258.82H119.76C120.77 257.03 122.59 255.17 126.47 255.17C130.35 255.17 132.01 257.19 132.53 258.88C133.31 257.19 135.82 255.17 139.17 255.17C143.92 255.17 146.14 257.55 146.14 261.06L146.17 272.62H143.76L143.73 261.87H143.72Z" fill="#F2DFDA"/>
<path d="M159.32 255.68H161.73L161.76 272.61H159.35L159.32 255.68Z" fill="#F2DFDA"/>
<path d="M195.34 261.71C195.34 258.32 193.26 257.18 190.23 257.18C185.51 257.18 183.36 259.56 183.36 263.43L183.39 272.61H180.98L180.95 255.68H183.36V259H183.43C184.11 257.18 186.69 255.16 190.43 255.16C196.03 255.16 197.76 258.09 197.76 262.13L197.79 272.61H195.38L195.35 261.7L195.34 261.71Z" fill="#F2DFDA"/>
<path d="M215.55 255.68H217.96L217.99 272.61H215.58L215.55 255.68Z" fill="#F2DFDA"/>
<path d="M250.72 261.71C250.72 258.32 248.64 257.18 245.61 257.18C240.89 257.18 238.74 259.56 238.74 263.43L238.77 272.61H236.36L236.33 255.68H238.74V259H238.81C239.49 257.18 242.07 255.16 245.81 255.16C251.41 255.16 253.14 258.09 253.14 262.13L253.17 272.61H250.76L250.73 261.7L250.72 261.71Z" fill="#F2DFDA"/>
<path d="M282.9 255.68H285.31V271.96C285.31 278.21 280.23 279.77 275.8 279.77C268.08 279.77 267.3 276.09 267.14 274.27H269.35C269.71 276.09 270.2 277.95 275.9 277.95C280.36 277.95 282.9 275.87 282.9 271.8V268.77H282.83C281.89 270.5 279.74 272.61 275.37 272.61C271 272.61 266.35 270.4 266.35 263.79C266.35 259.3 269.22 255.16 275.6 255.16C278.89 255.16 281.69 256.4 282.83 258.97H282.9V255.68ZM275.73 257.18C271.46 257.18 268.76 259.59 268.76 263.79C268.76 268.74 271.89 270.6 275.92 270.6C279.95 270.6 282.95 268.09 282.95 263.79C282.95 260.24 280.51 257.18 275.72 257.18H275.73Z" fill="#F2DFDA"/>
</g>
<g clip-path="url(#clip2_92_196)">
<path d="M0 427.53V462.44C0 466.27 3.1 469.37 6.93 469.37H41.84C18.73 469.37 0 450.64 0 427.53Z" fill="#F2DFDA"/>
<path d="M0 378.51V413.42C0 390.31 18.73 371.58 41.84 371.58H6.93C3.1 371.58 0 374.68 0 378.51Z" fill="#F2DFDA"/>
<path d="M90.87 371.58H55.96C79.07 371.58 97.8 390.31 97.8 413.42V378.51C97.8 374.68 94.7 371.58 90.87 371.58Z" fill="#F2DFDA"/>
<path d="M55.95 469.37H90.86C94.69 469.37 97.79 466.27 97.79 462.44V427.53C97.79 450.64 79.06 469.37 55.95 469.37Z" fill="#F2DFDA"/>
<path d="M117.28 380.66H122.49V426.97H154.37L154.44 431.75H117.36L117.29 380.65L117.28 380.66Z" fill="#F2DFDA"/>
<path d="M177.86 394.04C191.93 394.04 198.62 403.26 198.62 413.46C198.62 423.66 191.94 432.88 177.86 432.88C163.78 432.88 157.1 423.66 157.1 413.46C157.1 403.26 163.78 394.04 177.86 394.04ZM177.86 428.51C187.71 428.51 193.41 422.18 193.41 413.45C193.41 404.72 187.71 398.39 177.86 398.39C168.01 398.39 162.31 404.72 162.31 413.45C162.31 422.18 168.01 428.51 177.86 428.51Z" fill="#F2DFDA"/>
<path d="M205.37 381.09H210.58V412.97L232.89 395.17H240.63L222.69 409.03L242.04 431.76H235.14L218.82 412.41L210.59 418.67L210.66 431.76H205.45L205.38 381.1L205.37 381.09Z" fill="#F2DFDA"/>
<path d="M245.48 406.42C246.25 398.75 250.41 394.04 262.93 394.04C275.45 394.04 279.68 397.84 279.68 404.88V424.02C279.68 427.05 280.52 428.1 282.56 428.1C283.47 428.1 284.39 428.03 285.3 427.96V431.48C284.24 431.69 282.63 432.04 280.94 432.04C275.66 432.04 275.31 428.45 275.31 425.57H275.17C273.55 427.96 270.03 432.89 258.07 432.89C251.81 432.89 243.86 430.15 243.86 421.91C243.86 412.06 254.06 410.79 262.08 410.44C273.55 409.88 274.89 409.17 274.89 405.58C274.89 400.23 271.44 398.4 262.79 398.4C254.14 398.4 250.62 400.51 250.27 406.42H245.49H245.48ZM274.89 412.05C272.71 413.53 268.91 413.88 258.64 414.79C252.52 415.35 249.07 417.11 249.07 421.55C249.07 427.25 254 428.94 259.62 428.94C266.66 428.94 274.89 425.14 274.89 417.61V412.05Z" fill="#F2DFDA"/>
<path d="M143.72 447.66C143.72 444.53 142.19 442.97 138.67 442.97C134.93 442.97 132.91 445.12 132.91 448.41L132.94 458.41H130.53L130.5 446.95C130.5 444.8 128.97 442.98 125.68 442.98C122.23 442.98 119.69 444.97 119.69 448.87L119.72 458.41H117.31L117.28 441.48H119.69V444.61H119.76C120.77 442.82 122.59 440.96 126.47 440.96C130.35 440.96 132.01 442.98 132.53 444.67C133.31 442.98 135.82 440.96 139.17 440.96C143.92 440.96 146.14 443.34 146.14 446.85L146.17 458.41H143.76L143.73 447.66H143.72Z" fill="#F2DFDA"/>
<path d="M159.32 441.47H161.73L161.76 458.4H159.35L159.32 441.47Z" fill="#F2DFDA"/>
<path d="M195.34 447.5C195.34 444.11 193.26 442.97 190.23 442.97C185.51 442.97 183.36 445.35 183.36 449.22L183.39 458.4H180.98L180.95 441.47H183.36V444.79H183.43C184.11 442.97 186.69 440.95 190.43 440.95C196.03 440.95 197.76 443.88 197.76 447.92L197.79 458.4H195.38L195.35 447.49L195.34 447.5Z" fill="#F2DFDA"/>
<path d="M215.55 441.47H217.96L217.99 458.4H215.58L215.55 441.47Z" fill="#F2DFDA"/>
<path d="M250.72 447.5C250.72 444.11 248.64 442.97 245.61 442.97C240.89 442.97 238.74 445.35 238.74 449.22L238.77 458.4H236.36L236.33 441.47H238.74V444.79H238.81C239.49 442.97 242.07 440.95 245.81 440.95C251.41 440.95 253.14 443.88 253.14 447.92L253.17 458.4H250.76L250.73 447.49L250.72 447.5Z" fill="#F2DFDA"/>
<path d="M282.9 441.47H285.31V457.75C285.31 464 280.23 465.56 275.8 465.56C268.08 465.56 267.3 461.88 267.14 460.06H269.35C269.71 461.88 270.2 463.74 275.9 463.74C280.36 463.74 282.9 461.66 282.9 457.59V454.56H282.83C281.89 456.29 279.74 458.4 275.37 458.4C271 458.4 266.35 456.19 266.35 449.58C266.35 445.09 269.22 440.95 275.6 440.95C278.89 440.95 281.69 442.19 282.83 444.76H282.9V441.47ZM275.73 442.97C271.46 442.97 268.76 445.38 268.76 449.58C268.76 454.53 271.89 456.39 275.92 456.39C279.95 456.39 282.95 453.88 282.95 449.58C282.95 446.03 280.51 442.97 275.72 442.97H275.73Z" fill="#F2DFDA"/>
</g>
<defs>
<clipPath id="clip0_92_196">
<rect width="285.31" height="97.79" fill="white"/>
</clipPath>
<clipPath id="clip1_92_196">
<rect width="285.31" height="97.79" fill="white" transform="translate(0 185.79)"/>
</clipPath>
<clipPath id="clip2_92_196">
<rect width="285.31" height="97.79" fill="white" transform="translate(0 371.58)"/>
</clipPath>
</defs>
</svg>
