<svg width="152" height="152" viewBox="0 0 152 152" fill="none" xmlns="http://www.w3.org/2000/svg">
<g clip-path="url(#clip0_92_76)">
<path d="M151.26 75.63C151.26 33.8607 117.399 0 75.63 0C33.8607 0 0 33.8607 0 75.63C0 117.399 33.8607 151.26 75.63 151.26C117.399 151.26 151.26 117.399 151.26 75.63Z" fill="#F29320"/>
<path d="M35.29 81.45V110.25C35.29 113.41 37.85 115.96 41 115.96H69.8C50.74 115.96 35.29 100.51 35.29 81.45Z" fill="#F2DFDA"/>
<path d="M35.29 41.01V69.81C35.29 50.75 50.74 35.3 69.8 35.3H41C37.84 35.3 35.29 37.86 35.29 41.01Z" fill="#F2DFDA"/>
<path d="M110.25 35.3H81.4501C100.51 35.3 115.96 50.75 115.96 69.81V41.01C115.96 37.85 113.4 35.3 110.25 35.3Z" fill="#F2DFDA"/>
<path d="M81.4501 115.96H110.25C113.41 115.96 115.96 113.4 115.96 110.25V81.45C115.96 100.51 100.51 115.96 81.4501 115.96Z" fill="#F2DFDA"/>
<path d="M89.26 74.28C89.08 74.23 88.82 74.24 88.79 74.02C88.77 73.81 89.03 73.75 89.18 73.66C90.2 73.04 91.13 72.3 91.75 71.27C93.53 68.31 93.48 65.24 92.12 62.18C91.18 60.07 89.36 58.88 87.29 58.04C85.35 57.25 83.31 56.86 81.23 56.66C80.67 56.61 80.49 56.4 80.5 55.84C80.54 53.48 80.53 51.11 80.56 48.75C80.56 48.23 80.41 48.04 79.88 48.06C78.68 48.09 77.48 48.06 76.28 48.05C75.5 48.05 75.47 48.08 75.47 48.85C75.45 51.12 75.43 53.39 75.43 55.66C75.43 56.15 75.26 56.34 74.76 56.33C73.86 56.31 72.97 56.33 72.07 56.35C71.21 56.35 71.2 56.35 71.2 55.51C71.21 53.24 71.22 50.97 71.26 48.7C71.26 48.17 71.09 48 70.57 48.01C69.35 48.03 68.13 48.01 66.91 48C66.2 48 66.17 48.03 66.16 48.74C66.14 51.1 66.12 53.47 66.12 55.83C66.12 56.36 65.95 56.52 65.42 56.51C62.39 56.47 59.36 56.47 56.33 56.44C55.84 56.44 55.66 56.59 55.66 57.09C55.68 58.48 55.66 59.87 55.63 61.26C55.62 61.75 55.8 61.89 56.27 61.88C57.43 61.86 58.6 61.81 59.76 61.93C61.47 62.1 62.37 63.11 62.36 64.81C62.34 68.18 62.32 71.55 62.3 74.92C62.29 76.54 62.28 78.16 62.27 79.78C62.26 82.2 62.26 84.62 62.23 87.04C62.22 88.55 61.53 89.25 60.03 89.28C59.06 89.3 58.08 89.28 57.11 89.24C56.67 89.22 56.46 89.36 56.39 89.82C56.13 91.44 55.86 93.06 55.56 94.67C55.47 95.17 55.58 95.34 56.12 95.34C59.08 95.34 62.03 95.38 64.98 95.41C65.87 95.41 65.88 95.43 65.87 96.3C65.86 98.65 65.86 100.99 65.82 103.33C65.82 103.84 65.95 104.04 66.49 104.03C67.73 104 68.97 104.01 70.21 104.05C70.77 104.07 70.93 103.89 70.92 103.34C70.91 101 70.94 98.65 70.95 96.31C70.95 95.56 70.96 95.56 71.73 95.56C72.63 95.57 73.52 95.58 74.42 95.59C75.16 95.59 75.17 95.61 75.17 96.38C75.16 98.73 75.15 101.07 75.12 103.41C75.12 103.89 75.24 104.09 75.76 104.08C76.98 104.05 78.2 104.08 79.42 104.09C80.18 104.09 80.2 104.07 80.21 103.27C80.23 100.96 80.24 98.66 80.26 96.35C80.26 95.52 80.26 95.51 81.11 95.45C82.99 95.32 84.87 95.13 86.99 94.61C87.51 94.5 88.29 94.27 89.06 93.97C91.7 92.96 93.77 91.33 94.91 88.67C95.74 86.74 96 84.71 95.94 82.63C95.88 80.54 95.36 78.6 93.93 76.99C92.67 75.57 91.03 74.8 89.25 74.27L89.26 74.28ZM83.52 87.61C82.58 88.22 81.54 88.58 80.45 88.83C77.52 89.46 74.55 89.45 71.57 89.37C71.06 89.36 71.12 89 71.13 88.68C71.13 86.43 71.16 84.18 71.17 81.93C71.17 80.77 71.19 79.6 71.19 78.44C71.19 78.11 71.25 77.88 71.65 77.88C74.51 77.84 77.37 77.77 80.2 78.36C81.36 78.6 82.49 78.97 83.5 79.61C86.53 81.55 86.55 85.67 83.53 87.62L83.52 87.61ZM83.28 66.36C83.9 68.95 82.61 71.09 79.97 71.99C77.84 72.71 75.64 72.79 73.42 72.79C72.92 72.79 72.43 72.75 71.93 72.77C71.38 72.8 71.21 72.58 71.22 72.04C71.26 69.39 71.26 66.74 71.28 64.09C71.29 62.34 71.28 62.34 73.02 62.31C75.24 62.27 77.45 62.31 79.59 62.97C80.7 63.31 81.71 63.83 82.48 64.73C82.89 65.22 83.16 65.78 83.27 66.36H83.28Z" fill="#F2DFDA"/>
</g>
<defs>
<clipPath id="clip0_92_76">
<rect width="151.26" height="151.26" fill="white"/>
</clipPath>
</defs>
</svg>
