<svg width="285" height="98" viewBox="0 0 285 98" fill="none" xmlns="http://www.w3.org/2000/svg">
<g clip-path="url(#clip0_92_196)">
<path d="M0 55.95V90.86C0 94.69 3.1 97.79 6.93 97.79H41.84C18.73 97.79 0 79.06 0 55.95Z" fill="#F24E35"/>
<path d="M0 6.93V41.84C0 18.73 18.73 0 41.84 0H6.93C3.1 0 0 3.1 0 6.93Z" fill="#F24E35"/>
<path d="M90.87 0H55.96C79.07 0 97.8 18.73 97.8 41.84V6.93C97.8 3.1 94.7 0 90.87 0Z" fill="#F24E35"/>
<path d="M55.95 97.79H90.86C94.69 97.79 97.79 94.69 97.79 90.86V55.95C97.79 79.06 79.06 97.79 55.95 97.79Z" fill="#F24E35"/>
<path d="M117.28 9.08001H122.49V55.39H154.37L154.44 60.17H117.36L117.29 9.07001L117.28 9.08001Z" fill="#040303"/>
<path d="M177.86 22.46C191.93 22.46 198.62 31.68 198.62 41.88C198.62 52.08 191.94 61.3 177.86 61.3C163.78 61.3 157.1 52.08 157.1 41.88C157.1 31.68 163.78 22.46 177.86 22.46ZM177.86 56.93C187.71 56.93 193.41 50.6 193.41 41.87C193.41 33.14 187.71 26.81 177.86 26.81C168.01 26.81 162.31 33.14 162.31 41.87C162.31 50.6 168.01 56.93 177.86 56.93Z" fill="#040303"/>
<path d="M205.37 9.51001H210.58V41.39L232.89 23.59H240.63L222.69 37.45L242.04 60.18H235.14L218.82 40.83L210.59 47.09L210.66 60.18H205.45L205.38 9.52001L205.37 9.51001Z" fill="#040303"/>
<path d="M245.48 34.84C246.25 27.17 250.41 22.46 262.93 22.46C275.45 22.46 279.68 26.26 279.68 33.3V52.44C279.68 55.47 280.52 56.52 282.56 56.52C283.47 56.52 284.39 56.45 285.3 56.38V59.9C284.24 60.11 282.63 60.46 280.94 60.46C275.66 60.46 275.31 56.87 275.31 53.99H275.17C273.55 56.38 270.03 61.31 258.07 61.31C251.81 61.31 243.86 58.57 243.86 50.33C243.86 40.48 254.06 39.21 262.08 38.86C273.55 38.3 274.89 37.59 274.89 34C274.89 28.65 271.44 26.82 262.79 26.82C254.14 26.82 250.62 28.93 250.27 34.84H245.49H245.48ZM274.89 40.47C272.71 41.95 268.91 42.3 258.64 43.21C252.52 43.77 249.07 45.53 249.07 49.97C249.07 55.67 254 57.36 259.62 57.36C266.66 57.36 274.89 53.56 274.89 46.03V40.47Z" fill="#040303"/>
<path d="M143.72 76.08C143.72 72.95 142.19 71.39 138.67 71.39C134.93 71.39 132.91 73.54 132.91 76.83L132.94 86.83H130.53L130.5 75.37C130.5 73.22 128.97 71.4 125.68 71.4C122.23 71.4 119.69 73.39 119.69 77.29L119.72 86.83H117.31L117.28 69.9H119.69V73.03H119.76C120.77 71.24 122.59 69.38 126.47 69.38C130.35 69.38 132.01 71.4 132.53 73.09C133.31 71.4 135.82 69.38 139.17 69.38C143.92 69.38 146.14 71.76 146.14 75.27L146.17 86.83H143.76L143.73 76.08H143.72Z" fill="#040303"/>
<path d="M159.32 69.89H161.73L161.76 86.82H159.35L159.32 69.89Z" fill="#040303"/>
<path d="M195.34 75.92C195.34 72.53 193.26 71.39 190.23 71.39C185.51 71.39 183.36 73.77 183.36 77.64L183.39 86.82H180.98L180.95 69.89H183.36V73.21H183.43C184.11 71.39 186.69 69.37 190.43 69.37C196.03 69.37 197.76 72.3 197.76 76.34L197.79 86.82H195.38L195.35 75.91L195.34 75.92Z" fill="#040303"/>
<path d="M215.55 69.89H217.96L217.99 86.82H215.58L215.55 69.89Z" fill="#040303"/>
<path d="M250.72 75.92C250.72 72.53 248.64 71.39 245.61 71.39C240.89 71.39 238.74 73.77 238.74 77.64L238.77 86.82H236.36L236.33 69.89H238.74V73.21H238.81C239.49 71.39 242.07 69.37 245.81 69.37C251.41 69.37 253.14 72.3 253.14 76.34L253.17 86.82H250.76L250.73 75.91L250.72 75.92Z" fill="#040303"/>
<path d="M282.9 69.89H285.31V86.17C285.31 92.42 280.23 93.98 275.8 93.98C268.08 93.98 267.3 90.3 267.14 88.48H269.35C269.71 90.3 270.2 92.16 275.9 92.16C280.36 92.16 282.9 90.08 282.9 86.01V82.98H282.83C281.89 84.71 279.74 86.82 275.37 86.82C271 86.82 266.35 84.61 266.35 78C266.35 73.51 269.22 69.37 275.6 69.37C278.89 69.37 281.69 70.61 282.83 73.18H282.9V69.89ZM275.73 71.39C271.46 71.39 268.76 73.8 268.76 78C268.76 82.95 271.89 84.81 275.92 84.81C279.95 84.81 282.95 82.3 282.95 78C282.95 74.45 280.51 71.39 275.72 71.39H275.73Z" fill="#040303"/>
</g>
<defs>
<clipPath id="clip0_92_196">
<rect width="285.31" height="97.79" fill="white"/>
</clipPath>
</defs>
</svg>