<svg width="344" height="108" viewBox="0 0 344 108" fill="none" xmlns="http://www.w3.org/2000/svg">
<g clip-path="url(#clip0_92_197)">
<path d="M0 61.68V100.16C0 104.38 3.42 107.8 7.64 107.8H46.12C20.65 107.81 0 87.16 0 61.68Z" fill="#F24E35"/>
<path d="M0 7.64V46.12C0 20.65 20.65 0 46.12 0H7.64C3.42 0 0 3.42 0 7.64Z" fill="#F24E35"/>
<path d="M100.18 0H61.7C87.17 0 107.82 20.65 107.82 46.12V7.64C107.82 3.42 104.4 0 100.18 0Z" fill="#F24E35"/>
<path d="M61.68 107.81H100.16C104.38 107.81 107.8 104.39 107.8 100.17V61.69C107.8 87.16 87.15 107.81 61.68 107.81Z" fill="#F24E35"/>
<path d="M130.06 21.62H136.69V80.59H177.28L177.37 86.68H130.15L130.06 21.62Z" fill="#040303"/>
<path d="M207.2 38.66C225.12 38.66 233.63 50.4 233.63 63.39C233.63 76.38 225.12 88.12 207.2 88.12C189.28 88.12 180.77 76.38 180.77 63.39C180.77 50.4 189.28 38.66 207.2 38.66ZM207.2 82.56C219.74 82.56 227 74.5 227 63.39C227 52.28 219.74 44.22 207.2 44.22C194.66 44.22 187.4 52.28 187.4 63.39C187.4 74.5 194.66 82.56 207.2 82.56Z" fill="#040303"/>
<path d="M242.23 22.17H248.86V62.76L277.26 40.09H287.12L264.27 57.74L288.91 86.68H280.13L259.34 62.04L248.86 70.01L248.95 86.67H242.32L242.23 22.16V22.17Z" fill="#040303"/>
<path d="M293.29 54.43C294.28 44.66 299.56 38.66 315.51 38.66C331.46 38.66 336.83 43.5 336.83 52.46V76.83C336.83 80.68 337.9 82.03 340.5 82.03C341.66 82.03 342.83 81.94 343.99 81.85V86.33C342.65 86.6 340.59 87.05 338.44 87.05C331.72 87.05 331.27 82.48 331.27 78.81H331.09C329.03 81.86 324.55 88.13 309.32 88.13C301.35 88.13 291.22 84.64 291.22 74.15C291.22 61.61 304.21 59.99 314.42 59.55C329.02 58.83 330.73 57.94 330.73 53.37C330.73 46.56 326.34 44.23 315.32 44.23C304.3 44.23 299.82 46.92 299.37 54.44H293.28L293.29 54.43ZM330.74 61.59C327.96 63.47 323.12 63.92 310.04 65.08C302.25 65.8 297.86 68.04 297.86 73.68C297.86 80.94 304.13 83.09 311.3 83.09C320.26 83.09 330.74 78.25 330.74 68.67V61.59Z" fill="#040303"/>
</g>
<defs>
<clipPath id="clip0_92_197">
<rect width="344" height="107.81" fill="white"/>
</clipPath>
</defs>
</svg>