<svg width="98" height="289" viewBox="0 0 98 289" fill="none" xmlns="http://www.w3.org/2000/svg">
<g clip-path="url(#clip0_92_203)">
<path d="M0 56.0695V91.0547C0 94.8845 3.10487 98 6.94456 98H41.9261C18.7638 98 0 79.2343 0 56.0695Z" fill="#F24E35"/>
<path d="M0 6.94529V41.9305C0 18.7657 18.7638 0 41.9261 0H6.94456C3.10487 0 0 3.1052 0 6.94529Z" fill="#F24E35"/>
<path d="M91.0554 0H56.0739C79.2259 0 98 18.7657 98 41.9305V6.94529C98 3.11555 94.8951 0 91.0554 0Z" fill="#F24E35"/>
<path d="M56.0739 98H91.0554C94.8848 98 98 94.8948 98 91.0547V56.0695C98 79.2239 79.2362 98 56.0739 98Z" fill="#F24E35"/>
</g>
<g clip-path="url(#clip1_92_203)">
<path d="M0 247.07V282.055C0 285.884 3.10487 289 6.94456 289H41.9261C18.7638 289 0 270.234 0 247.07Z" fill="#F2DFDA"/>
<path d="M0 197.945V232.931C0 209.766 18.7638 191 41.9261 191H6.94456C3.10487 191 0 194.105 0 197.945Z" fill="#F2DFDA"/>
<path d="M91.0554 191H56.0739C79.2259 191 98 209.766 98 232.931V197.945C98 194.116 94.8951 191 91.0554 191Z" fill="#F2DFDA"/>
<path d="M56.0739 289H91.0554C94.8848 289 98 285.895 98 282.055V247.07C98 270.224 79.2362 289 56.0739 289Z" fill="#F2DFDA"/>
</g>
<defs>
<clipPath id="clip0_92_203">
<rect width="98" height="98" fill="white"/>
</clipPath>
<clipPath id="clip1_92_203">
<rect width="98" height="98" fill="white" transform="translate(0 191)"/>
</clipPath>
</defs>
</svg>
